<svg class="h-12" width="264" height="95" viewBox="0 0 264 95" fill="none" xmlns="http://www.w3.org/2000/svg">
<path d="M146.104 17.7809C146.104 23.3815 144.676 27.761 141.821 30.9192C138.965 34.0564 135.025 35.625 130 35.625C126.835 35.625 124.046 34.8986 121.633 33.4458C119.22 31.993 117.372 29.9086 116.088 27.1925C114.804 24.4764 114.162 21.3392 114.162 17.7809C114.162 12.1803 115.59 7.82192 118.445 4.70578C121.301 1.56859 125.219 0 130.199 0C135.158 0 139.043 1.58965 141.854 4.76895C144.687 7.92719 146.104 12.2645 146.104 17.7809ZM117.615 17.7809C117.615 22.4972 118.7 26.1818 120.869 28.8348C123.061 31.4666 126.149 32.7826 130.133 32.7826C134.117 32.7826 137.194 31.4666 139.364 28.8348C141.555 26.1818 142.651 22.4972 142.651 17.7809C142.651 13.0436 141.544 9.36946 139.33 6.75864C137.139 4.14783 134.051 2.84242 130.067 2.84242C126.082 2.84242 123.005 4.14783 120.836 6.75864C118.689 9.3484 117.615 13.0225 117.615 17.7809Z" fill="white"/>
<path d="M181.266 34.9934V12.7277C181.266 9.27471 180.503 6.76917 178.975 5.2111C177.448 3.63198 175.079 2.84242 171.87 2.84242C167.553 2.84242 164.388 3.88464 162.374 5.96908C160.381 8.03247 159.385 11.3907 159.385 16.0439V34.9934H156.098V0.663231H158.887L159.518 5.36902H159.717C162.064 1.78967 166.236 0 172.235 0C180.425 0 184.52 4.17941 184.52 12.5382V34.9934H181.266Z" fill="white"/>
<path d="M210.784 35.625C205.538 35.625 201.443 34.088 198.499 31.014C195.577 27.9399 194.116 23.6342 194.116 18.0967C194.116 12.6225 195.533 8.24302 198.366 4.95844C201.199 1.65281 205.018 0 209.821 0C214.071 0 217.425 1.41068 219.882 4.23205C222.339 7.05341 223.568 10.8854 223.568 15.7281V18.2547H197.569C197.613 22.971 198.765 26.5714 201.022 29.0559C203.302 31.5403 206.556 32.7826 210.784 32.7826C212.843 32.7826 214.647 32.6457 216.196 32.372C217.768 32.0983 219.749 31.5088 222.14 30.6034V33.4458C220.103 34.288 218.222 34.8565 216.495 35.1513C214.769 35.4671 212.865 35.625 210.784 35.625ZM209.821 2.77926C206.346 2.77926 203.557 3.87411 201.454 6.06383C199.351 8.23249 198.123 11.3697 197.768 15.4754H220.081C220.081 11.496 219.174 8.3904 217.358 6.15858C215.543 3.9057 213.031 2.77926 209.821 2.77926Z" fill="white"/>
<path d="M135.02 95L125.23 59.3939H124.935C125.393 65.3448 125.623 69.9684 125.623 73.2646V95H114.162V45.8219H131.386L141.373 80.2663H141.635L151.425 45.8219H168.681V95H156.795V73.0655C156.795 71.9594 156.806 70.7316 156.828 69.3821C156.872 68.0327 157.024 64.7254 157.286 59.4603H156.992L147.332 95H135.02Z" fill="white"/>
<path d="M208.492 95L206.01 85.2438H190.456L188.158 95H173.947L189.441 45.6228H206.697L222.637 95H208.492ZM203.325 74.4924L201.262 66.5283C200.782 64.7586 200.192 62.4689 199.494 59.6594C198.817 56.8498 198.369 54.8367 198.151 53.62C197.955 54.7482 197.562 56.6065 196.972 59.1948C196.405 61.7831 195.128 66.8823 193.141 74.4924H203.325Z" fill="white"/>
<path d="M249.036 55.8764C245.958 55.8764 243.557 57.1595 241.832 59.7257C240.108 62.2698 239.245 65.7872 239.245 70.2781C239.245 79.6137 242.749 84.2815 249.756 84.2815C251.874 84.2815 253.926 83.9829 255.912 83.3856C257.899 82.7883 259.896 82.0693 261.904 81.2286V92.3119C257.909 94.1038 253.391 94.9998 248.348 94.9998C241.123 94.9998 235.578 92.876 231.714 88.6285C227.872 84.3811 225.951 78.2421 225.951 70.2117C225.951 65.1899 226.879 60.7765 228.734 56.9715C230.612 53.1665 233.297 50.2463 236.789 48.2111C240.304 46.1537 244.43 45.125 249.167 45.125C254.34 45.125 259.285 46.2643 264 48.5429L260.038 58.863C258.27 58.0223 256.501 57.3144 254.733 56.7392C252.965 56.164 251.066 55.8764 249.036 55.8764Z" fill="white"/>
<path fill-rule="evenodd" clip-rule="evenodd" d="M0 0H95.1351V95H0V0ZM9.51396 85.5V66.5V9.5H28.541H85.6221V66.5H28.541V85.5H9.51396Z" fill="white"/>
</svg>
