<svg width="111" height="42" viewBox="0 0 111 42" fill="none" xmlns="http://www.w3.org/2000/svg">
<path d="M63.5293 10.0522C63.5293 11.4113 63.3625 12.6523 63.0288 13.7754C62.6951 14.8984 62.1947 15.8669 61.5273 16.6807C60.86 17.4945 60.0259 18.1252 59.0249 18.5728C58.0321 19.0203 56.8724 19.2441 55.5459 19.2441C54.2113 19.2441 53.0435 19.0203 52.0425 18.5728C51.0415 18.1252 50.2074 17.4945 49.54 16.6807C48.8809 15.8587 48.3844 14.8862 48.0508 13.7632C47.7171 12.632 47.5503 11.3869 47.5503 10.0278C47.5503 8.22119 47.8555 6.63021 48.4658 5.25488C49.0843 3.87956 49.9917 2.80534 51.188 2.03223C52.3924 1.25911 53.8776 0.872559 55.6436 0.872559C57.3363 0.872559 58.7686 1.24284 59.9404 1.9834C61.1204 2.71582 62.0116 3.76969 62.6138 5.14502C63.2241 6.51221 63.5293 8.14795 63.5293 10.0522ZM48.8687 10.04C48.8687 11.6351 49.1087 13.043 49.5889 14.2637C50.069 15.4762 50.8055 16.4243 51.7983 17.1079C52.7912 17.7915 54.0444 18.1333 55.5581 18.1333C57.0881 18.1333 58.3454 17.7956 59.3301 17.1201C60.3148 16.4447 61.0431 15.5007 61.5151 14.2881C61.9871 13.0755 62.2231 11.6636 62.2231 10.0522C62.2231 7.50505 61.6657 5.52751 60.5508 4.11963C59.444 2.71175 57.8083 2.00781 55.6436 2.00781C54.1217 2.00781 52.8563 2.34554 51.8472 3.021C50.8462 3.69645 50.0975 4.63639 49.6011 5.84082C49.1128 7.04525 48.8687 8.44499 48.8687 10.04Z" fill="white"/>
<path d="M73.4106 5.47461C74.8999 5.47461 76.0433 5.86523 76.8408 6.64648C77.6383 7.42773 78.0371 8.65251 78.0371 10.3208V19H76.8164V10.394C76.8164 9.07568 76.5153 8.10726 75.9131 7.48877C75.3109 6.87028 74.436 6.56104 73.2886 6.56104C71.8319 6.56104 70.717 6.98828 69.9438 7.84277C69.1789 8.68913 68.7964 9.97087 68.7964 11.688V19H67.5635V5.73096H68.5645L68.7476 8.14795H68.8208C69.0568 7.65153 69.3783 7.20394 69.7852 6.80518C70.2002 6.39827 70.7088 6.07682 71.311 5.84082C71.9132 5.59668 72.6131 5.47461 73.4106 5.47461Z" fill="white"/>
<path d="M87.6133 5.47461C88.7445 5.47461 89.6844 5.7391 90.4331 6.26807C91.1899 6.79704 91.7515 7.52132 92.1177 8.44092C92.492 9.36051 92.6792 10.4144 92.6792 11.6025V12.4937H83.0967C83.0967 14.3166 83.5158 15.7163 84.354 16.6929C85.2004 17.6694 86.4089 18.1577 87.9795 18.1577C88.8014 18.1577 89.5135 18.0926 90.1157 17.9624C90.7261 17.8241 91.4015 17.5921 92.1421 17.2666V18.4019C91.491 18.6948 90.84 18.9064 90.189 19.0366C89.5379 19.175 88.7892 19.2441 87.9429 19.2441C86.6001 19.2441 85.473 18.9674 84.5615 18.4141C83.6582 17.8525 82.9746 17.0632 82.5107 16.0459C82.055 15.0286 81.8271 13.8405 81.8271 12.4814C81.8271 11.1549 82.0469 9.96273 82.4863 8.90479C82.9339 7.84684 83.585 7.0127 84.4395 6.40234C85.3021 5.78385 86.36 5.47461 87.6133 5.47461ZM87.6011 6.53662C86.3315 6.53662 85.3021 6.9598 84.5127 7.80615C83.7314 8.64437 83.2716 9.85693 83.1333 11.4438H91.3975C91.3975 10.4754 91.2591 9.62093 90.9824 8.88037C90.7057 8.13981 90.2866 7.56608 89.7251 7.15918C89.1717 6.74414 88.4637 6.53662 87.6011 6.53662Z" fill="white"/>
<path d="M56.0928 41L52.2969 27.6318H52.1826C52.2165 27.9788 52.2503 28.4486 52.2842 29.041C52.3265 29.6335 52.3646 30.2725 52.3984 30.958C52.4323 31.6436 52.4492 32.3037 52.4492 32.9385V41H48.0059V22.4395H54.6836L58.5557 35.6172H58.6572L62.4531 22.4395H69.1436V41H64.5352V32.8623C64.5352 32.2783 64.5436 31.652 64.5605 30.9834C64.5859 30.3063 64.6113 29.6715 64.6367 29.0791C64.6706 28.4782 64.7002 28.0042 64.7256 27.6572H64.6113L60.8662 41H56.0928Z" fill="white"/>
<path d="M84.1403 41L83.2262 37.5215H77.1959L76.2565 41H70.7467L76.8024 22.3633H83.4928L89.6246 41H84.1403ZM82.1852 33.4082L81.3854 30.3613C81.3008 30.0312 81.178 29.5615 81.0172 28.9521C80.8564 28.3343 80.6956 27.6995 80.5348 27.0479C80.3825 26.3877 80.264 25.846 80.1793 25.4229C80.1032 25.846 79.9931 26.3708 79.8493 26.9971C79.7138 27.6149 79.57 28.2285 79.4176 28.8379C79.2737 29.4473 79.1468 29.9551 79.0368 30.3613L78.237 33.4082H82.1852Z" fill="white"/>
<path d="M99.5179 26.2861C98.9254 26.2861 98.3964 26.4131 97.9309 26.667C97.4654 26.9124 97.0677 27.2721 96.7376 27.7461C96.4075 28.2201 96.1536 28.7998 95.9759 29.4854C95.8066 30.1624 95.722 30.9326 95.722 31.7959C95.722 32.9639 95.8701 33.9456 96.1663 34.7412C96.4625 35.5368 96.9111 36.1377 97.512 36.5439C98.1214 36.9502 98.8831 37.1533 99.7971 37.1533C100.627 37.1533 101.422 37.0391 102.184 36.8105C102.954 36.582 103.728 36.307 104.507 35.9854V40.2256C103.686 40.5895 102.844 40.8519 101.981 41.0127C101.126 41.1735 100.216 41.2539 99.2513 41.2539C97.2369 41.2539 95.5865 40.8561 94.3001 40.0605C93.0221 39.2565 92.0784 38.1436 91.469 36.7217C90.8681 35.2998 90.5677 33.6494 90.5677 31.7705C90.5677 30.3656 90.7623 29.0791 91.1516 27.9111C91.5494 26.7432 92.1292 25.7318 92.8909 24.877C93.6526 24.0137 94.5921 23.3493 95.7093 22.8838C96.8349 22.4098 98.1214 22.1729 99.5686 22.1729C100.466 22.1729 101.409 22.2786 102.4 22.4902C103.398 22.6934 104.372 23.0234 105.32 23.4805L103.783 27.4287C103.106 27.1071 102.421 26.8363 101.727 26.6162C101.033 26.3962 100.296 26.2861 99.5179 26.2861Z" fill="white"/>
<path fill-rule="evenodd" clip-rule="evenodd" d="M0 1H40V41H0V1ZM4.00019 37V5H36.0002V29H12.0002V37H4.00019Z" fill="white"/>
</svg>
