<?xml version="1.0" encoding="UTF-8"?>
<!-- Do not edit this file with editors other than diagrams.net -->
<!DOCTYPE svg PUBLIC "-//W3C//DTD SVG 1.1//EN" "http://www.w3.org/Graphics/SVG/1.1/DTD/svg11.dtd">
<svg version="1.1" xmlns="http://www.w3.org/2000/svg" viewBox="0 0 1297.8071899414062 1404.8658447265623" width="1297.8071899414062" height="1404.8658447265623"> <!-- svg-source:excalidraw --> <rect x="0" y="0" width="1297.8071899414062" height="1404.8658447265623" fill="#ffffff"></rect><g transform="translate(10 10) rotate(0 638.9035949707031 692.4329223632811)"><path d="M12 0 M12 0 C295.7870414387173 0.4533809929224561, 579.9092377493753 0.6698533134790967, 1265.8071899414062 0 M1265.8071899414062 0 C1273.9627952694893 0.8247918963432312, 1276.9368183255197 3.091729533672333, 1277.8071899414062 12 M1277.8071899414062 12 C1280.590143827441 426.31053306936764, 1280.6197948589352 841.3065490746408, 1277.8071899414062 1372.8658447265623 M1277.8071899414062 1372.8658447265623 C1276.4364698290824 1381.2353027462957, 1274.3152604937554 1385.1394771695134, 1265.8071899414062 1384.8658447265623 M1265.8071899414062 1384.8658447265623 C974.6630850751961 1383.7946621007566, 683.4725449625186 1383.6017838353757, 12 1384.8658447265623 M12 1384.8658447265623 C3.177170956134796 1384.4850683093068, 0.3415626645088196 1382.0372232317923, 0 1372.8658447265623 M0 1372.8658447265623 C3.70235655539447 997.7942532067434, 4.298750750951111 622.6145134887968, 0 12 M0 12 C-1.044733250141144 2.4812824368476867, 2.784509074687958 -0.9624557375907898, 12 0" stroke="#1c1c1c" stroke-width="1.75" fill="none"></path></g></svg>